HIERARCHY
ROOT Hips
{
	OFFSET	0	0	0
	CHANNELS 6  Xposition Yposition Zposition Xrotation Yrotation Zrotation
	JOINT Spine
	{
		OFFSET	0	3.21788	0.646011
		CHANNELS 3  Xrotation Yrotation Zrotation
		JOINT Spine1
		{
			OFFSET	0	5.50913	-0.983773
			CHANNELS 3  Xrotation Yrotation Zrotation
			JOINT Spine2
			{
				OFFSET	0	4.17611	0.447617
				CHANNELS 3  Xrotation Yrotation Zrotation
				JOINT Spine3
				{
					OFFSET	0	4.99756	1.4855
					CHANNELS 3  Xrotation Yrotation Zrotation
					JOINT Spine4
					{
						OFFSET	0	7.39797	-0.757505
						CHANNELS 3  Xrotation Yrotation Zrotation
						JOINT Neck
						{
							OFFSET	0	3.53174	-2.47419
							CHANNELS 3  Xrotation Yrotation Zrotation
							JOINT Head
							{
								OFFSET	0	4.24006	-1.26907
								CHANNELS 3  Xrotation Yrotation Zrotation
								End Site
								{
									OFFSET	0	8.84412	-0.427941
								}
							}
						}
					}
					JOINT LeftShoulder
					{
						OFFSET	-2.12495	8.99168	-4.24006
						CHANNELS 3  Xrotation Yrotation Zrotation
						JOINT LeftArm
						{
							OFFSET	-4.608	-1.26907	1.62815
							CHANNELS 3  Xrotation Yrotation Zrotation
							JOINT LeftForeArm
							{
								OFFSET	-16.0972	-0.734705	1.149
								CHANNELS 3  Xrotation Yrotation Zrotation
								JOINT LeftHand
								{
									OFFSET	-13.6504	-0.943317	0.974348
									CHANNELS 3  Xrotation Yrotation Zrotation
									End Site
									{
										OFFSET	-4.9817	-0.344263	0.355566
									}
								}
							}
						}
					}
					JOINT RightShoulder
					{
						OFFSET	2.12495	8.99168	-4.24006
						CHANNELS 3  Xrotation Yrotation Zrotation
						JOINT RightArm
						{
							OFFSET	4.608	-1.26907	1.62815
							CHANNELS 3  Xrotation Yrotation Zrotation
							JOINT RightForeArm
							{
								OFFSET	16.0972	-0.734705	1.149
								CHANNELS 3  Xrotation Yrotation Zrotation
								JOINT RightHand
								{
									OFFSET	13.6504	-0.943317	0.974348
									CHANNELS 3  Xrotation Yrotation Zrotation
									End Site
									{
										OFFSET	4.9817	-0.344263	0.355566
									}
								}
							}
						}
					}
				}
			}
		}
	}
	JOINT LeftUpLeg
	{
		OFFSET	-4.31353	-1.60894	-0.323005
		CHANNELS 3  Xrotation Yrotation Zrotation
		JOINT LeftLeg
		{
			OFFSET	-1.16342	-22.7968	-0.356364
			CHANNELS 3  Xrotation Yrotation Zrotation
			JOINT LeftFoot
			{
				OFFSET	-1.12128	-20.6687	1.77751
				CHANNELS 3  Xrotation Yrotation Zrotation
				JOINT LeftToeBase
				{
					OFFSET	0	-2.59065	-6.88078
					CHANNELS 3  Xrotation Yrotation Zrotation
					End Site
					{
						OFFSET	0	-1.03626	-4.14505
					}
				}
			}
		}
	}
	JOINT RightUpLeg
	{
		OFFSET	4.31353	-1.60894	-0.323005
		CHANNELS 3  Xrotation Yrotation Zrotation
		JOINT RightLeg
		{
			OFFSET	1.16342	-22.7968	-0.356364
			CHANNELS 3  Xrotation Yrotation Zrotation
			JOINT RightFoot
			{
				OFFSET	1.12128	-20.6687	1.77751
				CHANNELS 3  Xrotation Yrotation Zrotation
				JOINT RightToeBase
				{
					OFFSET	0	-2.59065	-6.88078
					CHANNELS 3  Xrotation Yrotation Zrotation
					End Site
					{
						OFFSET	0	-1.03626	-4.14505
					}
				}
			}
		}
	}
}
MOTION
Frames: 10
Frame Time: 0.033333
 0 17.2592 5.06854 -0 0 -0 -0 0 -0 -0 0 -0 -0 0 -0 -0 0 -0 -0 0 -0 -0 0 -0 -0 0 -0 -0 0 -0 -0 0 -0 -0 0 -0 -0 0 -0 -0 0 -0 -0 0 -0 -0 0 -0 -0 0 -0 -0 0 -0 -0 0 -0 -0 0 -0 -0 0 -0 -0 0 -0 -0 0 -0 -0 0 -0 -0 0 -0
 0.695977 50.1224 5.27487 171.663 -178.128 176.767 180 179.995 -178.688 4.04933 0.00984558 2.18596 3.90796 0.0295367 2.18596 2.27783 0.00492508 1.31157 2.33419 0.0178063 0.436828 5.07249 -25.3121 -2.89514 1.07193 -38.2865 -3.63267 168.447 -153.719 154.221 65.3386 48.9345 -18.1517 147.701 -164.597 170.427 -0 -1.47982 -13.3242 168.486 153.785 -154.313 86.9245 -45.8322 26.3816 105.106 175.4 -163.315 -0 12.5644 11.1658 24.7879 18.7272 8.04311 160.179 -164.444 172.721 167.952 -179.993 171.471 5.39049 0 0 26.9113 49.5437 -3.78968 159.207 -167.584 173.395 0.799524 -0.0330405 -14.0829 28.6485 0 0
 0.690254 50.126 5.27079 171.707 -178.249 176.766 180 179.994 -178.702 4.04181 0.012219 2.16373 3.87905 0.0366571 2.16373 2.20922 0.00611231 1.29824 2.48016 0.0187268 0.432341 5.54051 -25.3314 -2.69688 1.23366 -38.29 -3.53273 168.455 -153.764 154.239 65.1416 48.9427 -17.7954 147.542 -164.658 170.377 -0 -1.69977 -12.9539 168.48 153.798 -154.299 86.9702 -45.8069 26.5509 104.584 175.537 -163.191 -0 12.3304 11.1069 24.6971 18.7134 8.07372 160.313 -164.48 172.78 167.913 -179.971 171.619 5.4075 0 0 26.7289 49.3892 -3.68831 159.299 -167.621 173.513 0.811923 -0.0257609 -14.1725 28.6484 0 0
 0.691831 50.1278 5.23335 171.74 -178.385 176.77 180 179.995 -178.713 4.03981 0.0108345 2.14524 3.85644 0.0325035 2.14524 2.14567 0.00541969 1.28715 2.62461 0.0196474 0.428598 6.00005 -25.3236 -2.46291 1.39188 -38.2968 -3.42324 168.458 -153.816 154.246 64.9834 48.989 -17.531 147.404 -164.703 170.342 -0 -1.72841 -12.6053 168.481 153.785 -154.301 87.0602 -45.8027 26.8421 104.194 175.626 -163.12 -0 12.0691 11.1156 24.6289 18.7033 8.09585 160.396 -164.522 172.799 167.921 -179.959 171.75 5.42354 0 0 26.5971 49.2159 -3.62269 159.285 -167.624 173.588 0.878131 -0.023379 -14.2004 28.6486 0 0
 0.714414 50.1355 5.20592 171.759 -178.508 176.79 180 179.995 -178.723 4.03869 0.00951145 2.12834 3.83972 0.0285343 2.12834 2.09781 0.00475782 1.277 2.73409 0.0203051 0.425183 6.35052 -25.2701 -2.21698 1.51179 -38.3051 -3.31965 168.462 -153.849 154.255 64.7926 48.9598 -17.2801 147.31 -164.883 170.403 -0 -1.64277 -12.2905 168.481 153.773 -154.302 87.1539 -45.8088 27.1042 103.901 175.689 -163.072 -0 11.8437 11.1716 24.5837 18.6782 8.09992 160.477 -164.553 172.777 167.884 -179.94 171.857 5.43973 0 0 26.3886 49.0764 -3.5046 159.493 -167.614 173.627 0.894669 -0.0230494 -14.2214 28.6486 0 0
 0.723406 50.1401 5.18222 171.78 -178.592 176.806 180 179.994 -178.728 4.03501 0.0129273 2.1202 3.81177 0.0387818 2.1202 2.02334 0.00646646 1.27212 2.90106 0.0214617 0.423497 6.88172 -25.2525 -1.94716 1.69504 -38.3062 -3.19234 168.469 -153.88 154.272 64.7762 48.9842 -17.1767 147.201 -164.805 170.311 -0 -1.51092 -12.1025 168.475 153.781 -154.287 87.2394 -45.8368 27.3024 103.648 175.737 -163.072 -0 11.6741 11.2065 24.4848 18.5776 8.14311 160.59 -164.572 172.739 167.936 -179.944 171.933 5.456 0 0 26.3728 48.9682 -3.49265 159.364 -167.594 173.555 0.929324 -0.0248324 -14.2374 28.6485 0 0
 0.73013 50.1487 5.17406 171.783 -178.674 176.837 180 179.993 -178.735 4.03315 0.0137664 2.10825 3.78908 0.0412992 2.10825 1.95978 0.00688619 1.26495 3.04588 0.022405 0.421053 7.3416 -25.2376 -1.71419 1.85364 -38.3109 -3.08249 168.476 -153.887 154.288 64.7674 48.9916 -17.0821 147.098 -164.706 170.234 -0 -1.50377 -12.278 168.446 153.763 -154.218 87.3216 -45.8654 27.4721 103.449 175.824 -163.268 -0 11.5344 11.281 24.4213 18.5071 8.1632 160.705 -164.588 172.711 167.937 -179.944 171.992 5.47228 0 0 26.3127 48.8625 -3.45459 159.392 -167.576 173.511 0.91512 -0.0258757 -14.2583 28.6485 0 0
 0.749346 50.163 5.18298 171.74 -178.715 176.897 180 179.994 -178.737 4.03752 0.0128988 2.10485 3.77617 0.0386964 2.10485 1.91063 0.00645219 1.26291 3.16876 0.0232705 0.420327 7.71894 -25.414 -1.77971 1.98586 -38.3136 -3.07089 168.472 -153.898 154.278 64.9112 48.973 -17.1278 147.024 -164.709 170.221 -0 -1.2576 -12.4306 168.438 153.717 -154.2 87.3945 -45.8918 27.5881 103.25 175.947 -163.428 -0 11.4492 11.4919 24.4202 18.4463 8.15414 160.833 -164.599 172.659 167.895 -179.954 172.035 5.48822 0 0 26.2106 48.7523 -3.33599 159.709 -167.575 173.431 0.779262 -0.0208062 -14.32 28.6484 0 0
 0.775296 50.1789 5.20775 171.729 -178.736 176.968 180 179.994 -178.745 4.0118 0.0127467 2.09189 3.75277 0.0382402 2.09189 1.9004 0.00637609 1.25514 3.14405 0.022947 0.417749 7.66847 -25.4267 -1.81505 1.96842 -38.3196 -3.08638 168.476 -153.905 154.288 65.008 48.95 -17.1215 146.934 -164.557 170.103 -0 -0.865144 -12.5555 168.441 153.65 -154.208 87.4068 -45.9131 27.6387 102.981 176.073 -163.543 -0 11.3397 11.8423 24.4009 18.3717 8.04255 161.169 -164.746 172.725 167.684 -179.927 172.271 5.5081 0 0 26.2081 48.6573 -3.31292 159.975 -167.577 173.334 0.534436 -0.0138559 -14.3133 28.6484 0 0
 0.782274 50.1792 5.22159 171.746 -178.793 176.984 180 179.995 -178.745 3.98446 0.00959911 2.09232 3.73193 0.0287973 2.09232 1.90094 0.0048016 1.25539 3.09103 0.022565 0.417855 7.53116 -25.4164 -1.85979 1.92076 -38.3245 -3.11195 168.48 -153.89 154.297 65.0995 48.9125 -17.1186 146.86 -164.44 170.014 -0 -0.375297 -12.6458 168.453 153.636 -154.235 87.3864 -45.9035 27.6439 102.691 176.19 -163.624 -0 11.2557 12.3071 24.3387 18.3089 8.01752 161.445 -164.86 172.799 167.609 -179.925 172.407 5.52898 0 0 26.4525 48.5445 -3.40076 159.563 -167.552 173.088 0.468536 -0.00577472 -14.1855 28.6485 0 0
